<svg width="113" height="156" viewBox="0 0 113 156" fill="none" xmlns="http://www.w3.org/2000/svg">
<path d="M113 9.10993C113 14.1412 108.77 18.2199 103.552 18.2199C98.3347 18.2199 94.1049 14.1412 94.1049 9.10993C94.1049 4.07865 98.3347 0 103.552 0C108.77 0 113 4.07865 113 9.10993Z" fill="#303030"/>
<path fill-rule="evenodd" clip-rule="evenodd" d="M55.512 86.5145C33.5295 86.5145 17.5366 96.0412 17.5366 96.0412L16.9809 95.6244L29.6393 70.5573C35.3202 72.7603 41.7421 73.9511 48.4727 73.9511C72.6781 73.9511 92.3142 58.2321 92.3142 38.8214H92.2525C92.2525 20.3634 74.4688 5.2397 51.8688 3.81069H51.7454C51.591 3.81069 51.4212 3.7958 51.2514 3.78092C51.0816 3.76603 50.9117 3.75115 50.7574 3.75115H48.4109C24.2055 3.75115 4.5694 19.4702 4.5694 38.8809C4.5694 50.7893 11.9175 61.2687 23.2175 67.6397L0 104.615L3.45793 111.701C45.8175 79.8458 86.8803 96.9939 86.8803 119.263C86.8803 150.463 25.4404 146.771 25.4404 135.756C25.4404 133.625 26.8467 132.456 28.3171 131.235C29.9277 129.897 31.6153 128.495 31.6153 125.693C31.6153 120.334 26.9224 117.476 21.7973 117.476C16.6721 117.476 10.559 121.049 10.559 128.134C10.559 150.701 41.4333 156 57.982 156C74.5306 156 104.726 148.676 104.726 122.359C104.726 95.8626 77.4945 86.5145 55.512 86.5145ZM48.6579 8.9313C61.4399 8.9313 71.5049 16.255 71.5049 38.7618C71.5049 61.2687 62.9219 68.771 48.6579 68.771C34.394 68.771 25.5022 59.8397 25.5022 38.8214C25.5022 17.7435 34.3322 8.9313 48.6579 8.9313Z" fill="#303030"/>
</svg>
