<svg width="1122" height="315" viewBox="0 0 1122 315" fill="none" xmlns="http://www.w3.org/2000/svg">
<path d="M846.297 36.5357C856.69 36.5357 865.115 28.3569 865.115 18.2678C865.115 8.17879 856.69 0 846.297 0C835.905 0 827.48 8.17879 827.48 18.2678C827.48 28.3569 835.905 36.5357 846.297 36.5357Z" fill="black"/>
<path d="M390.589 3.72568V14.6623C398.141 15.3834 403.093 18.388 405.445 23.7963C406.683 27.4018 407.302 33.1705 407.302 41.2228V226.786C407.302 234.958 406.436 240.967 404.826 244.573C402.474 249.981 397.646 252.986 390.465 253.707V264.643H452.737V253.707C441.223 253.707 435.529 244.693 435.529 226.786V3.72568H390.589Z" fill="black"/>
<path d="M473.04 3.72568V14.6623C480.468 15.3834 485.544 18.388 487.896 23.7963C489.134 27.4018 489.753 33.1705 489.753 41.2228V226.786C489.753 234.958 488.886 240.967 487.277 244.573C484.925 249.981 480.097 252.986 472.916 253.707V264.643H535.188V253.707C523.674 253.707 517.979 244.693 517.979 226.786V3.72568H473.04Z" fill="black"/>
<path d="M820.052 132.201V121.265H864.991V226.786C864.991 244.693 870.686 253.707 882.199 253.707V264.643H819.928V253.707C831.194 252.264 836.765 243.251 836.765 226.786V159.122C836.765 150.83 836.022 145.061 834.536 141.696C831.936 136.768 827.108 133.644 820.052 132.201Z" fill="black"/>
<path fill-rule="evenodd" clip-rule="evenodd" d="M350.849 229.79C350.849 242.77 354.687 256.952 373.01 250.101C373.133 250.101 373.969 251.093 374.805 252.084C375.64 253.076 376.476 254.067 376.6 254.067C365.705 267.648 338.469 278.585 327.08 247.097H326.337C314.328 257.552 302.072 267.528 277.931 267.528C253.79 267.528 235.592 252.024 235.592 227.627C235.592 203.23 251.067 175.467 322.871 175.467C322.871 151.431 322.252 129.678 295.758 129.678C277.188 129.678 273.598 140.134 273.598 146.023C273.598 151.911 273.103 157.68 260.971 157.68C248.96 157.68 248.961 152.262 248.962 144.225L248.962 143.979C248.962 138.812 254.409 130.639 260.723 127.514C260.909 127.42 261.102 127.322 261.303 127.219C266.998 124.315 278.875 118.26 298.606 118.26C333.27 118.26 350.849 142.177 350.849 170.059V229.79ZM265.304 226.185C265.304 236.641 269.76 251.904 291.302 251.904C323.31 251.904 322.998 223.52 322.682 194.778L322.682 194.772C322.657 192.501 322.632 190.228 322.623 187.966C275.208 187.966 265.304 215.729 265.304 226.185Z" fill="black"/>
<path fill-rule="evenodd" clip-rule="evenodd" d="M676.196 229.67C676.196 229.67 656.264 251.904 629.152 251.904C594.612 251.904 586.441 223.18 586.441 181.957H679.167C679.167 143.258 657.874 118.38 623.333 118.38C588.793 118.38 554.748 140.494 554.748 196.74C554.748 239.765 578.889 267.648 622.838 267.648C653.664 267.648 679.043 242.289 683.376 235.799L676.196 229.67ZM619 129.678C645.989 129.678 649.207 151.791 649.207 170.059H587.06C587.06 154.676 594.116 129.678 619 129.678Z" fill="black"/>
<path d="M747.381 144.22C762.485 121.866 773.379 118.38 787.864 118.38C802.348 118.38 803.71 128.956 803.71 134.966C803.71 140.975 802.348 148.066 790.711 148.066C782.569 148.066 781.237 146.262 779.798 144.314C779.202 143.507 778.588 142.675 777.464 141.936C773.75 139.412 770.16 137.129 761.494 140.975C752.828 144.941 747.752 158.882 746.886 169.338C746.019 179.794 746.019 186.404 746.019 186.404V226.786C746.019 238.203 748.124 253.707 763.227 253.707V264.643H700.956V253.707C709.746 252.264 717.793 246.616 717.793 226.786V150.71C717.793 143.979 714.698 135.446 700.956 132.201V121.265H745.895V144.22H747.381Z" fill="black"/>
<path d="M908.197 160.565C908.197 139.292 924.415 118.38 959.327 118.38C995.229 118.38 1004.39 135.807 1004.39 144.821C1004.39 153.834 1000.8 157.32 990.524 157.32C980.249 157.32 977.649 148.066 977.401 142.778C977.154 137.489 974.183 129.678 955.984 129.678C937.785 129.678 929.367 141.576 929.367 151.791C929.367 162.007 934.195 170.179 961.555 177.991C988.915 185.803 1014.05 195.298 1014.05 221.738C1014.05 248.178 991.267 267.528 956.974 267.528C922.682 267.528 903.864 251.904 903.864 232.194C903.864 231.997 903.86 231.778 903.855 231.539C903.781 227.684 903.609 218.733 919.463 218.733C936.3 218.733 934.567 232.554 932.462 238.083C930.357 243.731 931.472 255.87 956.727 255.87C981.982 255.87 987.429 242.049 987.429 232.194C987.429 222.339 984.953 213.445 952.641 204.552C920.33 195.658 908.197 181.837 908.197 160.565Z" fill="black"/>
<path d="M1030.64 132.802V121.265H1047.84V88.4548L1075.95 73.9126V121.265H1107.76V132.923H1075.95V230.631C1075.95 246.496 1084.24 249.38 1094.02 249.38C1103.8 249.38 1115.19 241.328 1115.19 241.328L1122 249.019C1122 249.019 1108.88 267.528 1080.65 267.528C1052.42 267.528 1047.84 245.654 1047.84 231.833V132.802H1030.64Z" fill="black"/>
<path d="M226.554 18.5082C226.554 28.6636 218.074 36.8962 207.613 36.8962C197.152 36.8962 188.671 28.6636 188.671 18.5082C188.671 8.35278 197.152 0.120181 207.613 0.120181C218.074 0.120181 226.554 8.35278 226.554 18.5082Z" fill="black"/>
<path fill-rule="evenodd" clip-rule="evenodd" d="M111.296 174.746C67.2234 174.746 35.1592 193.976 35.1592 193.976L34.045 193.134L59.424 142.537C70.8136 146.984 83.6888 149.388 97.183 149.388C145.713 149.388 185.081 117.659 185.081 78.4796H184.957C184.957 41.2228 149.303 10.6963 103.992 7.8119H103.744C103.435 7.8119 103.095 7.78186 102.754 7.75181C102.414 7.72177 102.073 7.69172 101.764 7.69172H97.0593C48.5296 7.69172 9.16121 39.4201 9.16121 78.5998C9.16121 102.636 23.8934 123.789 46.5488 136.648L0 211.282L6.93281 225.584C91.8597 161.286 174.187 195.899 174.187 240.847C174.187 303.823 51.0056 296.372 51.0056 274.138C51.0056 269.836 53.8251 267.478 56.773 265.012C60.0023 262.311 63.3856 259.481 63.3856 253.827C63.3856 243.01 53.9768 237.242 43.7014 237.242C33.426 237.242 21.1698 244.452 21.1698 258.754C21.1698 304.304 83.0698 315 116.248 315C149.427 315 209.965 300.217 209.965 247.097C209.965 193.615 155.369 174.746 111.296 174.746ZM97.5545 18.1477C123.181 18.1477 143.36 32.9302 143.36 78.3594C143.36 123.789 126.152 138.932 97.5545 138.932C68.9566 138.932 51.1294 120.904 51.1294 78.4796C51.1294 35.9348 68.8328 18.1477 97.5545 18.1477Z" fill="black"/>
</svg>
