<svg width="570" height="1028" viewBox="0 0 570 1028" fill="none" xmlns="http://www.w3.org/2000/svg">
<path d="M59.4722 78.9146L59.4657 78.8958L59.4578 78.8776C50.1459 57.4599 30.5948 45.5651 0.987635 42.6361V0.5H176.985V878.843C176.985 914.156 182.595 940.787 193.946 958.603C205.239 976.327 222.183 985.279 244.761 985.409V1027.5H0.5V985.362C28.6586 982.428 47.7119 970.528 57.0186 949.125C63.4017 934.819 66.8132 911.055 66.8132 878.843V147.737C66.8132 116.003 64.3767 93.2033 59.4722 78.9146ZM384.211 78.9146L384.205 78.8958L384.197 78.8776C374.885 57.4596 354.851 45.5668 325.727 42.6368V0.5H501.724V878.843C501.724 914.156 507.334 940.787 518.685 958.603C529.978 976.327 546.922 985.279 569.5 985.409V1027.5H325.239V985.362C353.397 982.428 372.45 970.528 381.757 949.126C388.141 934.82 391.552 911.055 391.552 878.843V147.737C391.552 116.003 389.116 93.2033 384.211 78.9146Z" stroke="url(#paint0_linear)"/>
<defs>
<linearGradient id="paint0_linear" x1="285" y1="0" x2="285" y2="1028" gradientUnits="userSpaceOnUse">
<stop stop-color="#C6C6C6"/>
<stop offset="1" stop-color="#C6C6C6" stop-opacity="0"/>
</linearGradient>
</defs>
</svg>
