<svg width="17" height="23" viewBox="0 0 17 23" fill="none" xmlns="http://www.w3.org/2000/svg">
<path d="M16.1536 1.35141C16.1536 2.09291 15.5489 2.69402 14.803 2.69402C14.0572 2.69402 13.4525 2.09291 13.4525 1.35141C13.4525 0.6099 14.0572 0.00878906 14.803 0.00878906C15.5489 0.00878906 16.1536 0.6099 16.1536 1.35141Z" fill="url(#paint0_linear)"/>
<path fill-rule="evenodd" clip-rule="evenodd" d="M7.93556 12.7593C4.79312 12.7593 2.5069 14.1633 2.5069 14.1633L2.42745 14.1019L4.23701 10.4075C5.0491 10.7322 5.96712 10.9077 6.92927 10.9077C10.3895 10.9077 13.1965 8.59101 13.1965 5.73027H13.1877C13.1877 3.00993 10.6455 0.781013 7.41476 0.570407H7.39711C7.37504 0.570407 7.35077 0.568213 7.32649 0.566019C7.30222 0.563826 7.27794 0.561632 7.25588 0.561632H6.92045C3.46022 0.561632 0.653205 2.8783 0.653205 5.73904C0.653205 7.4941 1.70363 9.03855 3.31899 9.9775L0 15.4269L0.494318 16.4712C6.54971 11.7764 12.4197 14.3037 12.4197 17.5857C12.4197 22.1839 3.63677 21.6398 3.63677 20.0164C3.63677 19.7023 3.8378 19.5301 4.04799 19.3501C4.27824 19.1529 4.51947 18.9463 4.51947 18.5334C4.51947 17.7436 3.84862 17.3224 3.11597 17.3224C2.38332 17.3224 1.50943 17.8489 1.50943 18.8932C1.50943 22.219 5.92298 23 8.28865 23C10.6543 23 14.9708 21.9207 14.9708 18.042C14.9708 14.137 11.078 12.7593 7.93556 12.7593ZM6.95575 1.32508C8.78296 1.32508 10.2218 2.40444 10.2218 5.72149C10.2218 9.03855 8.99481 10.1442 6.95575 10.1442C4.91669 10.1442 3.64559 8.82794 3.64559 5.73027C3.64559 2.62382 4.90787 1.32508 6.95575 1.32508Z" fill="url(#paint1_linear)"/>
<defs>
<linearGradient id="paint0_linear" x1="40" y1="2.92381e-10" x2="40" y2="23" gradientUnits="userSpaceOnUse">
<stop offset="0.492467" stop-color="white"/>
<stop offset="0.546316" stop-color="#C7C7C7"/>
</linearGradient>
<linearGradient id="paint1_linear" x1="40" y1="2.92381e-10" x2="40" y2="23" gradientUnits="userSpaceOnUse">
<stop offset="0.492467" stop-color="white"/>
<stop offset="0.546316" stop-color="#C7C7C7"/>
</linearGradient>
</defs>
</svg>
