<svg width="203" height="57" viewBox="0 0 203 57" fill="none" xmlns="http://www.w3.org/2000/svg">
<path d="M153.118 6.61122C154.998 6.61122 156.523 5.13125 156.523 3.30561C156.523 1.47997 154.998 0 153.118 0C151.238 0 149.713 1.47997 149.713 3.30561C149.713 5.13125 151.238 6.61122 153.118 6.61122Z" fill="black"/>
<path d="M70.6681 0.67417V2.65319C72.0344 2.78367 72.9304 3.32736 73.356 4.30599C73.5799 4.95841 73.6919 6.00229 73.6919 7.45937V41.0374C73.6919 42.5162 73.5351 43.6036 73.244 44.256C72.8184 45.2346 71.9448 45.7783 70.6457 45.9088V47.8878H81.9123V45.9088C79.8292 45.9088 78.7989 44.2778 78.7989 41.0374V0.67417H70.6681Z" fill="black"/>
<path d="M85.5857 0.67417V2.65319C86.9296 2.78367 87.8479 3.32736 88.2735 4.30599C88.4975 4.95841 88.6095 6.00229 88.6095 7.45937V41.0374C88.6095 42.5162 88.4527 43.6036 88.1615 44.256C87.736 45.2346 86.8624 45.7783 85.5633 45.9088V47.8878H96.8298V45.9088C94.7468 45.9088 93.7164 44.2778 93.7164 41.0374V0.67417H85.5857Z" fill="black"/>
<path d="M148.369 23.9222V21.9432H156.5V41.0374C156.5 44.2778 157.53 45.9088 159.614 45.9088V47.8878H148.347V45.9088C150.385 45.6478 151.393 44.0168 151.393 41.0374V28.7936C151.393 27.293 151.259 26.2491 150.99 25.6402C150.52 24.7486 149.646 24.1831 148.369 23.9222Z" fill="black"/>
<path fill-rule="evenodd" clip-rule="evenodd" d="M63.4781 41.5811C63.4781 43.9298 64.1725 46.496 67.4875 45.2564C67.5099 45.2564 67.6611 45.4358 67.8123 45.6152C67.9634 45.7946 68.1146 45.9741 68.137 45.9741C66.1659 48.4315 61.2382 50.4105 59.1775 44.7127H59.0431C56.8705 46.6047 54.653 48.4098 50.2852 48.4098C45.9175 48.4098 42.6248 45.6043 42.6248 41.1896C42.6248 36.7749 45.4247 31.7512 58.416 31.7512C58.416 27.4018 58.304 23.4655 53.5106 23.4655C50.1508 23.4655 49.5013 25.3575 49.5013 26.4231C49.5013 27.4887 49.4117 28.5326 47.2166 28.5326C45.0435 28.5326 45.0437 27.5522 45.0439 26.0978L45.0439 26.0534C45.0439 25.1183 46.0295 23.6394 47.1718 23.074C47.2054 23.057 47.2403 23.0391 47.2767 23.0206C48.3072 22.4951 50.456 21.3995 54.0258 21.3995C60.2975 21.3995 63.4781 25.7272 63.4781 30.7726V41.5811ZM48.0006 40.9287C48.0006 42.8207 48.8069 45.5826 52.7043 45.5826C58.4956 45.5826 58.4391 40.4465 58.3819 35.2455L58.3818 35.2445C58.3773 34.8336 58.3728 34.4222 58.3712 34.013C49.7924 34.013 48.0006 39.0366 48.0006 40.9287Z" fill="black"/>
<path fill-rule="evenodd" clip-rule="evenodd" d="M122.342 41.5593C122.342 41.5593 118.736 45.5826 113.831 45.5826C107.581 45.5826 106.103 40.385 106.103 32.9256H122.88C122.88 25.9229 119.027 21.4212 112.778 21.4212C106.529 21.4212 100.369 25.4227 100.369 35.6005C100.369 43.3861 104.737 48.4315 112.688 48.4315C118.265 48.4315 122.857 43.8428 123.641 42.6684L122.342 41.5593ZM111.994 23.4655C116.877 23.4655 117.459 27.467 117.459 30.7726H106.215C106.215 27.9889 107.492 23.4655 111.994 23.4655Z" fill="black"/>
<path d="M135.221 26.0969C137.954 22.0519 139.925 21.4212 142.546 21.4212C145.166 21.4212 145.413 23.335 145.413 24.4224C145.413 25.5097 145.166 26.7928 143.061 26.7928C141.588 26.7928 141.347 26.4665 141.086 26.1139C140.979 25.9679 140.868 25.8174 140.664 25.6837C139.992 25.227 139.343 24.8138 137.775 25.5097C136.207 26.2274 135.289 28.7501 135.132 30.6421C134.975 32.5341 134.975 33.7303 134.975 33.7303V41.0374C134.975 43.1034 135.356 45.9088 138.088 45.9088V47.8878H126.822V45.9088C128.412 45.6478 129.868 44.6257 129.868 41.0374V27.2713C129.868 26.0534 129.308 24.5093 126.822 23.9222V21.9432H134.953V26.0969H135.221Z" fill="black"/>
<path d="M164.317 29.0546C164.317 25.2053 167.252 21.4212 173.568 21.4212C180.064 21.4212 181.721 24.5746 181.721 26.2056C181.721 27.8367 181.072 28.4674 179.212 28.4674C177.353 28.4674 176.883 26.7928 176.838 25.8359C176.793 24.8791 176.256 23.4655 172.963 23.4655C169.671 23.4655 168.148 25.6185 168.148 27.467C168.148 29.3155 169.021 30.7944 173.971 32.2079C178.921 33.6215 183.468 35.3396 183.468 40.124C183.468 44.9084 179.347 48.4098 173.142 48.4098C166.938 48.4098 163.533 45.5826 163.533 42.016C163.533 41.9805 163.533 41.9408 163.532 41.8975C163.518 41.2 163.487 39.5803 166.356 39.5803C169.402 39.5803 169.088 42.0813 168.707 43.0816C168.327 44.1038 168.528 46.3003 173.098 46.3003C177.667 46.3003 178.653 43.7993 178.653 42.016C178.653 40.2327 178.205 38.6234 172.358 37.0141C166.512 35.4048 164.317 32.9039 164.317 29.0546Z" fill="black"/>
<path d="M186.47 24.0309V21.9432H189.583V16.0061L194.668 13.3747V21.9432H200.424V24.0527H194.668V41.7333C194.668 44.604 196.168 45.1259 197.938 45.1259C199.707 45.1259 201.768 43.6688 201.768 43.6688L203 45.0607C203 45.0607 200.626 48.4098 195.519 48.4098C190.412 48.4098 189.583 44.4517 189.583 41.9508V24.0309H186.47Z" fill="black"/>
<path d="M40.9897 3.3491C40.9897 5.18675 39.4554 6.67646 37.5627 6.67646C35.67 6.67646 34.1357 5.18675 34.1357 3.3491C34.1357 1.51146 35.67 0.0217471 37.5627 0.0217471C39.4554 0.0217471 40.9897 1.51146 40.9897 3.3491Z" fill="black"/>
<path fill-rule="evenodd" clip-rule="evenodd" d="M20.1365 31.6208C12.1625 31.6208 6.36125 35.1003 6.36125 35.1003L6.15966 34.9481L10.7514 25.7924C12.8121 26.5971 15.1416 27.032 17.583 27.032C26.3633 27.032 33.4861 21.2907 33.4861 14.2011H33.4638C33.4638 7.45937 27.0129 1.93552 18.815 1.41358H18.7702C18.7142 1.41358 18.6526 1.40815 18.591 1.40271C18.5294 1.39727 18.4678 1.39184 18.4118 1.39184H17.5606C8.78032 1.39184 1.65751 7.13316 1.65751 14.2228C1.65751 18.5723 4.32296 22.3998 8.42194 24.7268L0 38.232L1.25433 40.8199C16.6199 29.185 31.5151 35.4483 31.5151 43.5818C31.5151 54.9775 9.22829 53.6292 9.22829 49.6059C9.22829 48.8275 9.73841 48.4008 10.2718 47.9546C10.856 47.4658 11.4682 46.9538 11.4682 45.9306C11.4682 43.9733 9.76586 42.9294 7.90676 42.9294C6.04767 42.9294 3.83019 44.2343 3.83019 46.8222C3.83019 55.0645 15.0296 57 21.0324 57C27.0353 57 37.9883 54.3251 37.9883 44.7127C37.9883 35.0351 28.1104 31.6208 20.1365 31.6208ZM17.6502 3.28386C22.2868 3.28386 25.9378 5.9588 25.9378 14.1793C25.9378 22.3998 22.8243 25.14 17.6502 25.14C12.4761 25.14 9.25069 21.8779 9.25069 14.2011C9.25069 6.50248 12.4537 3.28386 17.6502 3.28386Z" fill="black"/>
</svg>
